<svg width="75" height="49" viewBox="0 0 75 49" fill="none" xmlns="http://www.w3.org/2000/svg">
<path fill-rule="evenodd" clip-rule="evenodd" d="M36.9999 36.9168C30.4185 36.9168 25.0833 31.5816 25.0833 25.0002C25.0833 18.4188 30.4185 13.0835 36.9999 13.0835C43.5813 13.0835 48.9166 18.4188 48.9166 25.0002C48.9166 31.5816 43.5813 36.9168 36.9999 36.9168ZM36.9999 34.7502C42.3847 34.7502 46.7499 30.3849 46.7499 25.0002C46.7499 19.6154 42.3847 15.2502 36.9999 15.2502C31.6151 15.2502 27.2499 19.6154 27.2499 25.0002C27.2499 30.3849 31.6151 34.7502 36.9999 34.7502ZM42.4166 23.9168H38.0833V19.5835H35.9166V23.9168H31.5833V26.0835H35.9166V30.4168H38.0833V26.0835H42.4166V23.9168Z" fill="white"/>
</svg>
