<svg width="72" height="72" viewBox="0 0 72 72" fill="none" xmlns="http://www.w3.org/2000/svg">
<g clip-path="url(#clip0_562_6599)">
<path d="M72 22.0645C72 9.89762 62.1024 0 49.9355 0C37.7686 0 27.871 9.89762 27.871 22.0645C27.871 26.8271 29.4025 31.2295 31.9786 34.8387H3.48387C1.56332 34.8387 0 36.402 0 38.3226V40.6452C0 42.5657 1.56332 44.129 3.48387 44.129H4.01348C8.97675 51.4228 11.6129 59.9204 11.6129 68.7566V72H13.9355V68.7566C13.9355 68.443 13.9241 68.1305 13.9179 67.817L17.4194 71.3196L24.3871 64.3518L31.3548 71.3196L38.3226 64.3518L45.2903 71.3196L48.7918 67.8181C48.7855 68.1305 48.7742 68.443 48.7742 68.7566V72H51.0968V68.7566C51.0968 59.7231 53.835 51.0338 59.0364 43.604L60.4359 41.4662C67.3174 37.7266 72 30.4328 72 22.0645ZM49.9355 41.8064C49.7648 41.8064 49.5998 41.7855 49.4314 41.7809C50.8841 36.9674 48.9993 30.8683 44.4857 26.353C44.1188 25.9873 43.7378 25.6436 43.3499 25.3114C44.5401 23.7798 45.8069 22.314 47.1474 20.9174L63.0289 36.799C59.5405 39.9029 54.9617 41.8064 49.9355 41.8064ZM52.4798 50.638C51.3661 53.2385 50.4963 55.9313 49.8822 58.6917L46.9325 55.7419L52.2581 50.4163L52.4798 50.638ZM45.2903 54.0998L39.9647 48.7742L44.6099 44.129H45.9708L50.6159 48.7742L45.2903 54.0998ZM10.4516 50.4163L15.7772 55.7419L12.8275 58.6917C12.2134 55.9313 11.3436 53.2396 10.2299 50.638L10.4516 50.4163ZM12.0938 48.7742L16.7389 44.129H18.0998L22.745 48.7742L17.4194 54.0998L12.0938 48.7742ZM21.3841 44.129H27.3901L24.3871 47.1321L21.3841 44.129ZM24.3871 50.4163L29.7127 55.7419L24.3871 61.0675L19.0615 55.7419L24.3871 50.4163ZM26.0292 48.7742L30.6744 44.129H32.0353L36.6804 48.7742L31.3548 54.0998L26.0292 48.7742ZM45.5041 19.2753C44.0905 20.7467 42.754 22.2908 41.4997 23.9062C37.9245 21.5105 33.8135 20.4723 30.2412 21.1227C30.4618 16.4696 32.2933 12.24 35.1999 8.97221L45.5041 19.2753ZM40.1155 25.769C38.1065 28.5837 36.3391 31.5896 34.841 34.7622C32.2315 31.6661 30.5712 27.7581 30.2644 23.4787C33.3049 22.7761 36.9254 23.6511 40.1155 25.769ZM41.963 27.1786C42.2629 27.44 42.5578 27.7105 42.8424 27.9963C46.9115 32.0653 48.5701 37.518 47.0646 41.574C43.0454 40.9842 39.4238 39.1867 36.5704 36.5529C38.0754 33.234 39.8848 30.0994 41.963 27.1786ZM35.3196 44.129H41.3256L38.3226 47.1321L35.3196 44.129ZM38.3226 50.4163L43.6482 55.7419L38.3226 61.0675L32.997 55.7419L38.3226 50.4163ZM48.7895 19.2764C50.2315 17.8923 51.7472 16.583 53.3343 15.3604C53.9444 16.2002 54.6237 17.0128 55.3864 17.776C58.8601 21.2491 63.368 23.206 67.4779 23.206C68.2116 23.206 68.9295 23.1362 69.6298 23.0086C69.4081 27.6617 67.5777 31.8901 64.6711 35.1568L48.7895 19.2764ZM69.6054 20.6503C65.6549 21.5638 60.7171 19.823 57.0274 16.1339C56.347 15.4534 55.7419 14.731 55.1998 13.9854C58.0787 11.9509 61.1617 10.18 64.4238 8.7006C67.3724 11.8942 69.2777 16.0528 69.6054 20.6503ZM52.8064 2.5562C56.5142 3.09942 59.8926 4.6616 62.6343 6.97114C59.5813 8.41368 56.6826 10.1023 53.9603 12.0172C52.2393 8.80494 51.7681 5.34999 52.8064 2.5562ZM50.4396 2.3481C49.4189 5.72877 50.0472 9.73715 52.0772 13.3934C50.3511 14.7135 48.709 16.1327 47.1462 17.6331L36.842 7.33008C40.3305 4.22612 44.9093 2.32258 49.9355 2.32258C50.1062 2.32258 50.27 2.34356 50.4396 2.3481ZM2.32258 40.6452V38.3226C2.32258 37.6818 2.84425 37.1613 3.48387 37.1613H33.8889C35.674 39.0575 37.7873 40.6338 40.1411 41.8064H3.48387C2.84425 41.8064 2.32258 41.2859 2.32258 40.6452ZM13.4546 44.129L9.1996 48.3841C8.4823 46.9302 7.68051 45.512 6.80614 44.129H13.4546ZM17.4194 68.0353L13.7172 64.3331C13.6253 63.3657 13.5068 62.4029 13.3548 61.4486L17.4194 57.3852L22.745 62.7097L17.4194 68.0353ZM31.3548 68.0353L26.0292 62.7097L31.3548 57.3841L36.6804 62.7097L31.3548 68.0353ZM45.2903 68.0353L39.9647 62.7097L45.2903 57.3841L49.3548 61.4475C49.2029 62.4029 49.0844 63.3657 48.9925 64.3331L45.2903 68.0353ZM53.5101 48.3841L49.2188 44.0933C49.4592 44.1001 49.6939 44.129 49.9355 44.129C52.249 44.129 54.4774 43.7678 56.5732 43.105C55.4329 44.8072 54.4054 46.5679 53.5101 48.3841Z" fill="white" fill-opacity="0.7"/>
</g>
<defs>
<clipPath id="clip0_562_6599">
<rect width="72" height="72" fill="white"/>
</clipPath>
</defs>
</svg>
