<svg width="22" height="22" viewBox="0 0 22 22" fill="none" xmlns="http://www.w3.org/2000/svg">
<path fill-rule="evenodd" clip-rule="evenodd" d="M6.66674 4.49984H4.50007V3.4165H2.33342V6.6665H19.6667V3.4165H17.5001V4.49984H15.3334V3.4165H6.66674V4.49984ZM19.6667 8.83317H2.33342V19.6665H19.6667V8.83317ZM15.3334 1.24984H6.66674V0.166504H4.50007V1.24984H2.33341C1.1368 1.24984 0.166748 2.21989 0.166748 3.4165V19.6665C0.166748 20.8631 1.1368 21.8332 2.33341 21.8332H19.6667C20.8634 21.8332 21.8334 20.8631 21.8334 19.6665V3.4165C21.8334 2.21989 20.8634 1.24984 19.6667 1.24984H17.5001V0.166504H15.3334V1.24984ZM7.75009 13.1665H5.58342V10.9998H7.75009V13.1665ZM9.91675 13.1665H12.0834V10.9998H9.91675V13.1665ZM16.4167 13.1665H14.2501V10.9998H16.4167V13.1665ZM5.58342 17.4998H7.75009V15.3332H5.58342V17.4998ZM12.0834 17.4998H9.91675V15.3332H12.0834V17.4998Z" fill="#656B82"/>
</svg>
