<svg width="100" height="106" viewBox="0 0 100 106" fill="none" xmlns="http://www.w3.org/2000/svg">
<g filter="url(#filter0_d_563_8799)">
<path d="M26 22H70C75.5228 22 80 26.4772 80 32V76H36C30.4772 76 26 71.5228 26 66V22Z" fill="url(#paint0_linear_563_8799)"/>
</g>
<path fill-rule="evenodd" clip-rule="evenodd" d="M54.0962 55.2554L53 56.2126L51.9038 55.2554C47.9884 51.8366 46 48.8112 46 46C46 42.0214 49.1035 39 53 39C56.8965 39 60 42.0214 60 46C60 48.8112 58.0116 51.8366 54.0962 55.2554ZM46.6856 51.8034C47.0961 52.3656 47.5535 52.9373 48.0575 53.519C46.1953 53.9384 45 54.5337 45 55C45 55.807 48.5791 57 53 57C57.4209 57 61 55.807 61 55C61 54.5337 59.8047 53.9384 57.9425 53.519C58.4465 52.9373 58.9039 52.3656 59.3144 51.8034C61.5633 52.4858 63 53.5804 63 55C63 57.5068 58.5203 59 53 59C47.4797 59 43 57.5068 43 55C43 53.5804 44.4367 52.4858 46.6856 51.8034ZM53 41C55.8038 41 58 43.1382 58 46C58 48.047 56.3727 50.5659 53 53.556C49.6273 50.5659 48 48.047 48 46C48 43.1382 50.1962 41 53 41ZM53 43C54.6569 43 56 44.3431 56 46C56 47.6569 54.6569 49 53 49C51.3431 49 50 47.6569 50 46C50 44.3431 51.3431 43 53 43ZM52 46C52 45.4477 52.4477 45 53 45C53.5523 45 54 45.4477 54 46C54 46.5523 53.5523 47 53 47C52.4477 47 52 46.5523 52 46Z" fill="white"/>
<defs>
<filter id="filter0_d_563_8799" x="0" y="0" width="106" height="106" filterUnits="userSpaceOnUse" color-interpolation-filters="sRGB">
<feFlood flood-opacity="0" result="BackgroundImageFix"/>
<feColorMatrix in="SourceAlpha" type="matrix" values="0 0 0 0 0 0 0 0 0 0 0 0 0 0 0 0 0 0 127 0" result="hardAlpha"/>
<feOffset dy="4"/>
<feGaussianBlur stdDeviation="13"/>
<feColorMatrix type="matrix" values="0 0 0 0 0 0 0 0 0 0 0 0 0 0 0 0 0 0 0.2 0"/>
<feBlend mode="normal" in2="BackgroundImageFix" result="effect1_dropShadow_563_8799"/>
<feBlend mode="normal" in="SourceGraphic" in2="effect1_dropShadow_563_8799" result="shape"/>
</filter>
<linearGradient id="paint0_linear_563_8799" x1="53" y1="22" x2="53" y2="76" gradientUnits="userSpaceOnUse">
<stop stop-color="#6566FD"/>
<stop offset="1" stop-color="#6843CF"/>
</linearGradient>
</defs>
</svg>
