<svg width="16" height="16" viewBox="0 0 16 16" fill="none" xmlns="http://www.w3.org/2000/svg">
<g id="16 / pin  ">
<path id="icon" fill-rule="evenodd" clip-rule="evenodd" d="M6.96927 15.0809L8 15.9995L9.03073 15.0809C12.3221 12.1477 14 9.54211 14 7.10311C14 3.64043 11.3426 1 8 1C4.65737 1 2 3.64043 2 7.10311C2 9.54211 3.67789 12.1477 6.96927 15.0809ZM8 3C10.2409 3 12 4.74787 12 7.10311C12 8.77275 10.702 10.8469 8 13.3171C5.298 10.8469 4 8.77275 4 7.10311C4 4.74787 5.75908 3 8 3ZM8 4C9.65685 4 11 5.34315 11 7C11 8.65685 9.65685 10 8 10C6.34315 10 5 8.65685 5 7C5 5.34315 6.34315 4 8 4ZM7 7C7 6.44772 7.44772 6 8 6C8.55228 6 9 6.44772 9 7C9 7.55228 8.55228 8 8 8C7.44772 8 7 7.55228 7 7Z" fill="#656B82"/>
</g>
</svg>
