<svg width="24" height="24" viewBox="0 0 24 24" fill="none" xmlns="http://www.w3.org/2000/svg">
<path fill-rule="evenodd" clip-rule="evenodd" d="M11.9999 23.9168C5.41852 23.9168 0.083252 18.5816 0.083252 12.0002C0.083252 5.41877 5.41852 0.0834961 11.9999 0.0834961C18.5813 0.0834961 23.9166 5.41877 23.9166 12.0002C23.9166 18.5816 18.5813 23.9168 11.9999 23.9168ZM20.016 17.5519C21.1093 15.9763 21.7499 14.0631 21.7499 12.0002C21.7499 6.61539 17.3847 2.25016 11.9999 2.25016C6.61515 2.25016 2.24993 6.61539 2.24993 12.0002C2.24993 14.0631 2.89059 15.9763 3.9838 17.5519C5.20304 15.9414 8.06808 15.2502 11.9999 15.2502C15.9318 15.2502 18.7968 15.9414 20.016 17.5519ZM18.4617 19.3016C18.1446 18.1615 15.8668 17.4168 11.9999 17.4168C8.13309 17.4168 5.85526 18.1615 5.53818 19.3016C7.25849 20.8252 9.52119 21.7502 11.9999 21.7502C14.4787 21.7502 16.7413 20.8252 18.4617 19.3016ZM11.9999 5.50016C9.37727 5.50016 7.66658 7.40223 7.66658 9.8335C7.66658 13.5465 9.57418 15.2502 11.9999 15.2502C14.4028 15.2502 16.3332 13.6031 16.3332 10.0502C16.3332 7.58187 14.6153 5.50016 11.9999 5.50016ZM9.83325 9.8335C9.83325 12.2919 10.7196 13.0835 11.9999 13.0835C13.2758 13.0835 14.1666 12.3234 14.1666 10.0502C14.1666 8.69645 13.3169 7.66683 11.9999 7.66683C10.6281 7.66683 9.83325 8.55064 9.83325 9.8335Z" fill="#656B82"/>
</svg>
